<svg id="Layer_1" data-name="Layer 1" xmlns="http://www.w3.org/2000/svg" xmlns:xlink="http://www.w3.org/1999/xlink" viewBox="0 0 300.41 446.67"><defs><style>.cls-1,.cls-11,.cls-4,.cls-8,.cls-9{fill:none;}.cls-2{fill:#eaeff2;stroke-width:2.29px;}.cls-10,.cls-13,.cls-14,.cls-15,.cls-16,.cls-17,.cls-18,.cls-2,.cls-20,.cls-24,.cls-25,.cls-26,.cls-27,.cls-28,.cls-29,.cls-30,.cls-31,.cls-32,.cls-33,.cls-4,.cls-5,.cls-6,.cls-9{stroke:#231f20;}.cls-3{clip-path:url(#clip-path);}.cls-4{stroke-width:2.45px;}.cls-5,.cls-6{fill:#ffd24f;}.cls-5{stroke-width:3.44px;}.cls-10,.cls-13,.cls-14,.cls-15,.cls-16,.cls-17,.cls-18,.cls-20,.cls-24,.cls-25,.cls-26,.cls-27,.cls-28,.cls-29,.cls-30,.cls-31,.cls-32,.cls-33,.cls-6,.cls-8,.cls-9{stroke-width:1.15px;}.cls-7{clip-path:url(#clip-path-2);}.cls-8{stroke:#fff;}.cls-10{fill:#fff;}.cls-11{stroke:#e31b23;stroke-width:14.73px;}.cls-12{fill:#e31b23;}.cls-13{fill:url(#radial-gradient);}.cls-14{fill:url(#radial-gradient-2);}.cls-15{fill:url(#radial-gradient-3);}.cls-16,.cls-17,.cls-20{stroke-linecap:round;stroke-linejoin:round;}.cls-16{fill:url(#radial-gradient-4);}.cls-17{fill:url(#radial-gradient-5);}.cls-18{fill:url(#radial-gradient-6);}.cls-19{fill:#474220;}.cls-20{fill:url(#radial-gradient-7);}.cls-21{fill:url(#linear-gradient);}.cls-22{fill:#8fc3ea;}.cls-23{fill:#231f20;}.cls-24{fill:url(#linear-gradient-2);}.cls-25{fill:url(#linear-gradient-3);}.cls-26{fill:url(#linear-gradient-4);}.cls-27{fill:url(#linear-gradient-5);}.cls-28{fill:url(#linear-gradient-6);}.cls-29{fill:url(#linear-gradient-7);}.cls-30{fill:url(#linear-gradient-8);}.cls-31{fill:url(#linear-gradient-9);}.cls-32{fill:url(#linear-gradient-10);}.cls-33{fill:url(#linear-gradient-11);}</style><clipPath id="clip-path" transform="translate(-249.8 -121.7)"><path class="cls-1" d="M458.17,297.13h-7.34V305H427.49a32.16,32.16,0,0,0-11.75-10.67V272.83h7.72v-9.07l-21.73-16.12h-4.36l-19.13,15.29v9.9h7.69v21.46A32.23,32.23,0,0,0,374.21,305h-27v-7.83h-7.33l-11.3,19.42V321l11.91,22h6.72v-7.83h24.49a31.81,31.81,0,0,0,14.26,15.31v83.75h-7.69v9.91l19.13,15.27h4.36l21.73-16.1v-9.08h-7.72V350.49A31.81,31.81,0,0,0,430,335.18h20.81V343h6.71l11.93-22v-4.43Z"/></clipPath><clipPath id="clip-path-2" transform="translate(-249.8 -121.7)"><path class="cls-1" d="M432.72,322.4a31.87,31.87,0,1,0-31.87,31.79A31.85,31.85,0,0,0,432.72,322.4Z"/></clipPath><radialGradient id="radial-gradient" cx="332.21" cy="409.75" r="44.29" gradientTransform="translate(-0.54 234.42) scale(1 0.43)" gradientUnits="userSpaceOnUse"><stop offset="0.32" stop-color="#b4975a"/><stop offset="0.66" stop-color="#474220"/></radialGradient><radialGradient id="radial-gradient-2" cx="334.53" cy="390.63" r="38.1" gradientTransform="translate(-0.54 223.48) scale(1 0.43)" xlink:href="#radial-gradient"/><radialGradient id="radial-gradient-3" cx="332.39" cy="393.4" r="25.72" gradientTransform="translate(-0.54 225.06) scale(1 0.43)" xlink:href="#radial-gradient"/><radialGradient id="radial-gradient-4" cx="341.23" cy="391.52" r="0" gradientTransform="translate(-0.54 223.99) scale(1 0.43)" xlink:href="#radial-gradient"/><radialGradient id="radial-gradient-5" cx="334.53" cy="384.58" r="33.47" gradientTransform="translate(-0.54 220.01) scale(1 0.43)" xlink:href="#radial-gradient"/><radialGradient id="radial-gradient-6" cx="329.61" cy="372.04" r="44.92" gradientTransform="translate(-0.54 212.84) scale(1 0.43)" xlink:href="#radial-gradient"/><radialGradient id="radial-gradient-7" cx="329.61" cy="372.04" r="39.15" gradientTransform="translate(-0.54 190.44) scale(1 0.49)" gradientUnits="userSpaceOnUse"><stop offset="0.39" stop-color="#fff"/><stop offset="1" stop-color="#474220"/></radialGradient><linearGradient id="linear-gradient" x1="301.75" y1="383.88" x2="295.67" y2="325.78" gradientUnits="userSpaceOnUse"><stop offset="0.33" stop-color="#ffe512"/><stop offset="0.56" stop-color="#eeb111"/></linearGradient><linearGradient id="linear-gradient-2" x1="486.32" y1="355.42" x2="486.32" y2="391" gradientUnits="userSpaceOnUse"><stop offset="0.62" stop-color="#d191c0"/><stop offset="1" stop-color="#fff"/></linearGradient><linearGradient id="linear-gradient-3" x1="479.6" y1="355.42" x2="479.6" y2="390.99" xlink:href="#linear-gradient-2"/><linearGradient id="linear-gradient-4" x1="485.59" y1="355.42" x2="485.59" y2="391" xlink:href="#linear-gradient-2"/><linearGradient id="linear-gradient-5" x1="452.82" y1="355.42" x2="452.82" y2="391" xlink:href="#linear-gradient-2"/><linearGradient id="linear-gradient-6" x1="459.56" y1="355.42" x2="459.56" y2="390.99" xlink:href="#linear-gradient-2"/><linearGradient id="linear-gradient-7" x1="453.56" y1="355.42" x2="453.56" y2="391" xlink:href="#linear-gradient-2"/><linearGradient id="linear-gradient-8" x1="469.07" y1="355.42" x2="469.07" y2="390.99" xlink:href="#linear-gradient-2"/><linearGradient id="linear-gradient-9" x1="486.93" y1="407.97" x2="486.93" y2="385.6" gradientUnits="userSpaceOnUse"><stop offset="0.53" stop-color="#d191c0"/><stop offset="1" stop-color="#fff"/></linearGradient><linearGradient id="linear-gradient-10" x1="451.92" y1="407.97" x2="451.92" y2="385.6" xlink:href="#linear-gradient-9"/><linearGradient id="linear-gradient-11" x1="470.11" y1="407.97" x2="470.11" y2="385.6" xlink:href="#linear-gradient-9"/></defs><polygon class="cls-2" points="165.94 225.83 165.94 151.13 173.67 151.13 173.67 142.06 151.93 125.95 147.58 125.95 128.44 141.23 128.44 151.13 136.14 151.13 136.14 225.83 136.14 237.87 136.14 312.54 128.44 312.54 128.44 322.46 147.58 337.72 151.93 337.72 173.67 321.62 173.67 312.54 165.94 312.54 165.94 237.87 165.94 225.83"/><polygon class="cls-2" points="161.55 213.49 201.04 213.49 201.04 221.31 207.75 221.31 219.68 199.28 219.68 194.85 208.37 175.44 201.04 175.44 201.04 183.26 161.55 183.26 152.64 183.26 97.39 183.26 97.39 175.44 90.05 175.44 78.75 194.85 78.75 199.28 90.66 221.31 97.39 221.31 97.39 213.49 152.64 213.49 161.55 213.49"/><g class="cls-3"><line class="cls-4" x1="236.72" y1="64.5" x2="30.86" y2="210.39"/><line class="cls-4" x1="236.72" y1="72.34" x2="30.86" y2="218.24"/><line class="cls-4" x1="236.72" y1="80.19" x2="30.86" y2="226.08"/><line class="cls-4" x1="236.72" y1="88.03" x2="30.86" y2="233.92"/><line class="cls-4" x1="236.72" y1="95.87" x2="30.86" y2="241.77"/><line class="cls-4" x1="236.72" y1="103.71" x2="30.86" y2="249.6"/><line class="cls-4" x1="236.72" y1="111.56" x2="30.86" y2="257.45"/><line class="cls-4" x1="236.72" y1="119.4" x2="30.86" y2="265.29"/><line class="cls-4" x1="236.72" y1="127.24" x2="30.86" y2="273.13"/><line class="cls-4" x1="236.72" y1="135.08" x2="30.86" y2="280.98"/><line class="cls-4" x1="236.72" y1="142.93" x2="30.86" y2="288.82"/><line class="cls-4" x1="236.72" y1="150.77" x2="30.86" y2="296.66"/><line class="cls-4" x1="236.72" y1="158.61" x2="30.86" y2="304.51"/><line class="cls-4" x1="236.72" y1="166.45" x2="30.86" y2="312.35"/><line class="cls-4" x1="236.72" y1="174.3" x2="30.86" y2="320.19"/><line class="cls-4" x1="236.72" y1="182.14" x2="30.86" y2="328.03"/><line class="cls-4" x1="236.72" y1="189.98" x2="30.86" y2="335.87"/><line class="cls-4" x1="236.72" y1="197.82" x2="30.86" y2="343.72"/><line class="cls-4" x1="236.72" y1="205.67" x2="30.86" y2="351.56"/><line class="cls-4" x1="236.72" y1="213.51" x2="30.86" y2="359.4"/><line class="cls-4" x1="236.72" y1="221.35" x2="30.86" y2="367.25"/><line class="cls-4" x1="236.72" y1="229.19" x2="30.86" y2="375.09"/><line class="cls-4" x1="236.72" y1="237.04" x2="30.86" y2="382.93"/><line class="cls-4" x1="236.72" y1="244.88" x2="30.86" y2="390.77"/><line class="cls-4" x1="236.72" y1="252.72" x2="30.86" y2="398.61"/><line class="cls-4" x1="236.72" y1="260.57" x2="30.86" y2="406.46"/><line class="cls-4" x1="236.72" y1="268.41" x2="30.86" y2="414.3"/><line class="cls-4" x1="236.72" y1="276.25" x2="30.86" y2="422.14"/><line class="cls-4" x1="236.72" y1="284.1" x2="30.86" y2="429.99"/><line class="cls-4" x1="236.72" y1="291.93" x2="30.86" y2="437.83"/><line class="cls-4" x1="236.72" y1="299.78" x2="30.86" y2="445.67"/></g><path class="cls-5" d="M432.72,322.4a31.87,31.87,0,1,0-31.87,31.79A31.85,31.85,0,0,0,432.72,322.4Z" transform="translate(-249.8 -121.7)"/><path class="cls-6" d="M432.72,322.4a31.87,31.87,0,1,0-31.87,31.79A31.85,31.85,0,0,0,432.72,322.4Z" transform="translate(-249.8 -121.7)"/><g class="cls-7"><path class="cls-8" d="M416.22,292.88s-7,7.4-6.46,15.33" transform="translate(-249.8 -121.7)"/><path class="cls-8" d="M420.69,295.67s-8.06,6.22-8.81,14.13" transform="translate(-249.8 -121.7)"/><path class="cls-8" d="M424.66,299.11s-9,4.87-10.93,12.58" transform="translate(-249.8 -121.7)"/><path class="cls-8" d="M428.05,303.16s-9.6,3.39-12.79,10.7" transform="translate(-249.8 -121.7)"/><path class="cls-8" d="M430.75,307.69s-10,1.83-14.31,8.54" transform="translate(-249.8 -121.7)"/><path class="cls-8" d="M432.69,312.58s-10.19.23-15.48,6.17" transform="translate(-249.8 -121.7)"/><path class="cls-8" d="M433.85,317.73s-10.1-1.39-16.28,3.66" transform="translate(-249.8 -121.7)"/><path class="cls-8" d="M434.18,323s-9.76-3-16.66,1" transform="translate(-249.8 -121.7)"/><path class="cls-8" d="M433.65,328.2s-9.15-4.44-16.6-1.56" transform="translate(-249.8 -121.7)"/><path class="cls-8" d="M432.32,333.3s-8.34-5.83-16.15-4.16" transform="translate(-249.8 -121.7)"/><path class="cls-8" d="M430.21,338.12s-7.32-7.08-15.29-6.65" transform="translate(-249.8 -121.7)"/><path class="cls-8" d="M427.35,342.55s-6.11-8.13-14.06-9" transform="translate(-249.8 -121.7)"/><path class="cls-8" d="M423.83,346.46s-4.75-9-12.46-11.08" transform="translate(-249.8 -121.7)"/><path class="cls-8" d="M419.74,349.79s-3.28-9.63-10.55-12.91" transform="translate(-249.8 -121.7)"/><path class="cls-8" d="M415.16,352.4s-1.7-10-8.37-14.39" transform="translate(-249.8 -121.7)"/><path class="cls-8" d="M410.24,354.28s-.12-10.17-6-15.53" transform="translate(-249.8 -121.7)"/><path class="cls-8" d="M405.08,355.38s1.5-10.08-3.46-16.3" transform="translate(-249.8 -121.7)"/><path class="cls-8" d="M399.81,355.62s3.08-9.7-.85-16.62" transform="translate(-249.8 -121.7)"/><path class="cls-8" d="M394.57,355s4.56-9.1,1.79-16.55" transform="translate(-249.8 -121.7)"/><path class="cls-8" d="M389.48,353.66s5.95-8.3,4.4-16.07" transform="translate(-249.8 -121.7)"/><path class="cls-8" d="M384.67,351.47s7.18-7.25,6.89-15.17" transform="translate(-249.8 -121.7)"/><path class="cls-8" d="M380.27,348.56s8.23-6,9.21-13.9" transform="translate(-249.8 -121.7)"/><path class="cls-8" d="M376.39,345s9.08-4.65,11.28-12.29" transform="translate(-249.8 -121.7)"/><path class="cls-8" d="M373.12,340.87s9.69-3.17,13.09-10.34" transform="translate(-249.8 -121.7)"/><path class="cls-8" d="M370.54,336.27s10.08-1.58,14.56-8.15" transform="translate(-249.8 -121.7)"/><path class="cls-8" d="M368.73,331.33s10.2,0,15.67-5.76" transform="translate(-249.8 -121.7)"/><path class="cls-8" d="M367.71,326.17s10.08,1.61,16.38-3.22" transform="translate(-249.8 -121.7)"/><path class="cls-8" d="M367.52,320.92s9.71,3.15,16.69-.62" transform="translate(-249.8 -121.7)"/><path class="cls-8" d="M368.17,315.69s9.08,4.65,16.58,2" transform="translate(-249.8 -121.7)"/><path class="cls-8" d="M369.63,310.62s8.23,6,16.07,4.62" transform="translate(-249.8 -121.7)"/><path class="cls-8" d="M371.89,305.86S379.06,313.1,387,313" transform="translate(-249.8 -121.7)"/><path class="cls-8" d="M374.86,301.53s5.93,8.27,13.82,9.36" transform="translate(-249.8 -121.7)"/><path class="cls-8" d="M378.49,297.68s4.55,9.12,12.16,11.44" transform="translate(-249.8 -121.7)"/><path class="cls-8" d="M382.66,294.49s3.06,9.72,10.21,13.2" transform="translate(-249.8 -121.7)"/><path class="cls-8" d="M387.31,292s1.48,10.08,8,14.66" transform="translate(-249.8 -121.7)"/><path class="cls-8" d="M392.27,290.22s-.1,10.19,5.58,15.71" transform="translate(-249.8 -121.7)"/><path class="cls-8" d="M397.47,289.26s-1.72,10.06,3,16.4" transform="translate(-249.8 -121.7)"/><path class="cls-8" d="M402.75,289.15s-3.29,9.65.39,16.67" transform="translate(-249.8 -121.7)"/><path class="cls-8" d="M408,289.86s-4.77,9-2.25,16.54" transform="translate(-249.8 -121.7)"/><path class="cls-8" d="M413,291.41s-6.14,8.13-4.84,15.95" transform="translate(-249.8 -121.7)"/></g><path class="cls-9" d="M432.72,322.4a31.87,31.87,0,1,0-31.87,31.79A31.85,31.85,0,0,0,432.72,322.4Z" transform="translate(-249.8 -121.7)"/><path class="cls-10" d="M412,322.4a11.18,11.18,0,1,0-11.17,11.14A11.17,11.17,0,0,0,412,322.4Z" transform="translate(-249.8 -121.7)"/><path class="cls-11" d="M516,248.35c0-40.71,21.47-62.7,21.47-62.7l-42.95-53c-56.93,41.26-94.52,0-94.52,0s-37.6,41.26-94.53,0l-42.95,53s21.48,22,21.48,62.7c0,43.39-26.86,67.48-26.86,115.15s36,73.41,63.93,82,67.09,19.29,78.93,32.15c11.81-12.86,51-23.59,78.92-32.15s63.9-34.28,63.9-82S516,291.74,516,248.35Z" transform="translate(-249.8 -121.7)"/><path class="cls-12" d="M324.32,165.2h4.31v20.89h13.09V190h-17.4Z" transform="translate(-249.8 -121.7)"/><path class="cls-12" d="M350.89,165.2V190h-4.34V165.2Z" transform="translate(-249.8 -121.7)"/><path class="cls-12" d="M377.7,188.08a20.48,20.48,0,0,1-2.43,1.24,16.24,16.24,0,0,1-2.79.82,17.24,17.24,0,0,1-3.1.3,13.59,13.59,0,0,1-5.32-1,12,12,0,0,1-4.08-2.68,12.84,12.84,0,0,1-2.58-4.06,14,14,0,0,1,0-10,12.33,12.33,0,0,1,2.65-4.09,12,12,0,0,1,4.06-2.78,12.68,12.68,0,0,1,5.18-1,16.88,16.88,0,0,1,3,.22,13,13,0,0,1,2.48.67,11.79,11.79,0,0,1,2.14,1.05,19,19,0,0,1,2,1.41l-2.78,3.3c-.46-.39-1-.75-1.46-1.09a10.28,10.28,0,0,0-1.57-.83,7.54,7.54,0,0,0-1.78-.54,11.84,11.84,0,0,0-2.17-.19,7.54,7.54,0,0,0-3.19.7,8,8,0,0,0-2.53,1.9,9.33,9.33,0,0,0-2.34,6.2,10.11,10.11,0,0,0,.62,3.56,8.61,8.61,0,0,0,1.72,2.84,8.13,8.13,0,0,0,2.66,1.84,8.51,8.51,0,0,0,3.48.68,10.61,10.61,0,0,0,3.3-.51,8.69,8.69,0,0,0,2.7-1.38v-4.66h-6.38v-3.8h10.59v10.42A17.31,17.31,0,0,1,377.7,188.08Z" transform="translate(-249.8 -121.7)"/><path class="cls-12" d="M389.76,179.54V190h-4.33V165.2h4.33v10.31H401.7V165.2H406V190H401.7V179.54Z" transform="translate(-249.8 -121.7)"/><path class="cls-12" d="M423,190h-4.39V169.25h-7.9V165.2h20.19v4.05H423Z" transform="translate(-249.8 -121.7)"/><path class="cls-12" d="M453.89,169.12H439.82v6.39h12.45v3.94H439.82v6.64h14.23V190h-18.6V165.2h18.44Z" transform="translate(-249.8 -121.7)"/><path class="cls-12" d="M480.8,182.47a11.29,11.29,0,0,1-2.73,3.95,12.75,12.75,0,0,1-4.17,2.64,14.51,14.51,0,0,1-5.38,1h-9.25V165.2h9.25a14.93,14.93,0,0,1,5.38.94,12.67,12.67,0,0,1,4.17,2.6,11.34,11.34,0,0,1,2.73,3.94,12.23,12.23,0,0,1,1,4.89A12.38,12.38,0,0,1,480.8,182.47Zm-4.23-8.21a8.7,8.7,0,0,0-1.75-2.72,7.83,7.83,0,0,0-2.73-1.76,9.09,9.09,0,0,0-3.57-.66h-4.9v17h4.9a9.66,9.66,0,0,0,3.57-.65,7.49,7.49,0,0,0,2.73-1.73,8.25,8.25,0,0,0,1.75-2.67,9.39,9.39,0,0,0,.62-3.4A9.16,9.16,0,0,0,476.57,174.26Z" transform="translate(-249.8 -121.7)"/><path class="cls-12" d="M324.32,219.59h4.31v20.86h13.09v3.94h-17.4Z" transform="translate(-249.8 -121.7)"/><path class="cls-12" d="M350.89,219.59v24.8h-4.34v-24.8Z" transform="translate(-249.8 -121.7)"/><path class="cls-12" d="M377.7,242.46a16.83,16.83,0,0,1-2.43,1.25,17.19,17.19,0,0,1-2.79.82,16.39,16.39,0,0,1-3.1.29,13.77,13.77,0,0,1-5.32-1,12.69,12.69,0,0,1-4.08-2.7,12.29,12.29,0,0,1-2.58-4.08,14,14,0,0,1,0-10,12.63,12.63,0,0,1,11.89-7.89,16.93,16.93,0,0,1,3,.21,13.82,13.82,0,0,1,2.48.67,13.21,13.21,0,0,1,2.14,1,20.94,20.94,0,0,1,2,1.43l-2.78,3.3a13.29,13.29,0,0,0-1.46-1.1,10.35,10.35,0,0,0-1.57-.84,9.26,9.26,0,0,0-1.78-.51,10.24,10.24,0,0,0-2.17-.21,7.69,7.69,0,0,0-3.19.69,8.59,8.59,0,0,0-2.53,1.9A9.39,9.39,0,0,0,361,232a10.37,10.37,0,0,0,.62,3.57,8.73,8.73,0,0,0,1.72,2.82,8.16,8.16,0,0,0,2.66,1.85,8.68,8.68,0,0,0,3.48.68,11.24,11.24,0,0,0,3.3-.51,8.91,8.91,0,0,0,2.7-1.38v-4.66h-6.38v-3.82h10.59V241A18.42,18.42,0,0,1,377.7,242.46Z" transform="translate(-249.8 -121.7)"/><path class="cls-12" d="M389.76,233.94v10.45h-4.33v-24.8h4.33v10.32H401.7V219.59H406v24.8H401.7V233.94Z" transform="translate(-249.8 -121.7)"/><path class="cls-12" d="M423,244.39h-4.39V223.6h-7.9v-4h20.19v4H423Z" transform="translate(-249.8 -121.7)"/><path class="cls-12" d="M453.89,223.51H439.82v6.4h12.45v3.92H439.82v6.62h14.23v3.94h-18.6v-24.8h18.44Z" transform="translate(-249.8 -121.7)"/><path class="cls-12" d="M476.63,219.59h4.31v24.8h-3.66l-13.66-17.64v17.64h-4.35v-24.8h4l13.32,17.14Z" transform="translate(-249.8 -121.7)"/><path class="cls-12" d="M394,215.66H390.8v-14h-5.74v-2.71h14.63v2.71H394Z" transform="translate(-249.8 -121.7)"/><path class="cls-12" d="M419.43,210.61a7.71,7.71,0,0,1-1.93,2.75,9.23,9.23,0,0,1-3,1.89,9.82,9.82,0,0,1-3.8.7,10,10,0,0,1-3.8-.69,8.92,8.92,0,0,1-3-1.86,8.55,8.55,0,0,1-2-2.74,8.21,8.21,0,0,1-.69-3.36A8.41,8.41,0,0,1,402,204a9.09,9.09,0,0,1,2-2.77,8.83,8.83,0,0,1,3-1.85,10.11,10.11,0,0,1,3.82-.72,10.43,10.43,0,0,1,3.82.7,9.15,9.15,0,0,1,2.95,1.84,8.41,8.41,0,0,1,1.91,2.75,8.28,8.28,0,0,1,0,6.71ZM416.37,205a5.74,5.74,0,0,0-1.26-1.9,6.52,6.52,0,0,0-6.87-1.31,6,6,0,0,0-1.93,1.27A6.2,6.2,0,0,0,405,205a6.66,6.66,0,0,0-.41,2.3,6.76,6.76,0,0,0,.41,2.31,7.62,7.62,0,0,0,1.3,1.9,7,7,0,0,0,1.95,1.31,6.8,6.8,0,0,0,2.48.46,7.13,7.13,0,0,0,2.47-.45,6.34,6.34,0,0,0,1.91-1.28,5.76,5.76,0,0,0,1.67-4.21A6,6,0,0,0,416.37,205Z" transform="translate(-249.8 -121.7)"/><path class="cls-13" d="M361.39,409.75c0,4.09-12.93,7.41-28.89,7.41s-28.89-3.32-28.89-7.41,12.95-7.41,28.89-7.41S361.39,405.66,361.39,409.75Z" transform="translate(-249.8 -121.7)"/><path class="cls-14" d="M314.31,375.26s9.49,6.62,9.49,18.06V406h17.74V391.52c0-10.36,13.8-13.94,13.8-13.94Z" transform="translate(-249.8 -121.7)"/><path class="cls-15" d="M348.72,393.4c0,3.61-7.19,6.53-16.05,6.53s-16-2.92-16-6.53,7.18-6.52,16-6.52S348.72,389.8,348.72,393.4Z" transform="translate(-249.8 -121.7)"/><path class="cls-16" d="M341.54,391.52" transform="translate(-249.8 -121.7)"/><path class="cls-17" d="M323.74,391.82c6.34,4,13.35,1.28,17.8-.38v.08c0-10.36,13.8-13.94,13.8-13.94l-41-2.32a18.57,18.57,0,0,1,9.49,16.18h0" transform="translate(-249.8 -121.7)"/><path class="cls-18" d="M359.46,372c0,3.55-12.48,6.44-27.86,6.44s-31.26-2.89-31.26-6.44,15.87-6.43,31.26-6.43S359.46,368.49,359.46,372Z" transform="translate(-249.8 -121.7)"/><path class="cls-19" d="M359.46,372c0,3.55-12.48,6.44-27.86,6.44s-31.26-2.89-31.26-6.44,15.87-6.43,31.26-6.43S359.46,368.49,359.46,372Z" transform="translate(-249.8 -121.7)"/><path class="cls-20" d="M361,368.84c-2.43-2.5-6.1-3.51-11.17-4.57a100.77,100.77,0,0,0-18.27-1.52,118.28,118.28,0,0,0-22,1.94,38.34,38.34,0,0,0-7.76,2.23,10.7,10.7,0,0,0-2.75,1.71,4.34,4.34,0,0,0,0,6.83,14.57,14.57,0,0,0,5.3,2.65c6.41,2,16.8,3.22,27.17,3.23a94.52,94.52,0,0,0,20.35-2,27.19,27.19,0,0,0,6.7-2.32l2.39-1.82a4.61,4.61,0,0,0,0-6.4Zm-12.2,5.35a95.08,95.08,0,0,1-17.24,1.43,114.24,114.24,0,0,1-20.86-1.84,31.91,31.91,0,0,1-6.22-1.75,41.36,41.36,0,0,1,8.88-2.2,119.3,119.3,0,0,1,18.2-1.36,89.47,89.47,0,0,1,19.06,1.81,22.22,22.22,0,0,1,5.21,1.75A25.44,25.44,0,0,1,348.84,374.19Z" transform="translate(-249.8 -121.7)"/><path class="cls-21" d="M304.09,372.94c-24-2.33-11.82-33.07-1.24-42.19-3.24,6.26-1.26,15.19,2.5,21.1S310.54,371.33,304.09,372.94Z" transform="translate(-249.8 -121.7)"/><rect class="cls-22" x="194.26" y="288.42" width="53.86" height="13.23"/><line class="cls-8" x1="196.4" y1="285.92" x2="196.4" y2="305.76"/><line class="cls-8" x1="202.12" y1="285.92" x2="202.12" y2="305.76"/><line class="cls-8" x1="207.85" y1="285.92" x2="207.85" y2="305.76"/><line class="cls-8" x1="213.56" y1="285.92" x2="213.56" y2="305.76"/><line class="cls-8" x1="219.29" y1="285.92" x2="219.29" y2="305.76"/><line class="cls-8" x1="225" y1="285.92" x2="225" y2="305.76"/><line class="cls-8" x1="230.74" y1="285.92" x2="230.74" y2="305.76"/><line class="cls-8" x1="236.46" y1="285.92" x2="236.46" y2="305.76"/><line class="cls-8" x1="242.18" y1="285.92" x2="242.18" y2="305.76"/><rect class="cls-8" x="190.36" y="290.92" width="64.64" height="7.33"/><rect class="cls-23" x="218.27" y="280.55" width="3.94" height="11.98"/><path class="cls-24" d="M477.58,381.48A25.15,25.15,0,0,1,490,359.77c6.13,12.79,5.4,18.82,4.53,20.38S476.79,387.69,477.58,381.48Z" transform="translate(-249.8 -121.7)"/><path class="cls-25" d="M471.64,383.66a25.09,25.09,0,0,1,7.71-23.77c8.6,11.26,9.13,17.31,8.6,19S472.13,389.9,471.64,383.66Z" transform="translate(-249.8 -121.7)"/><path class="cls-26" d="M473.25,393.49c2.87-18.59,6.81-23.95,24-29.31,3.4,16.27-6.81,24.49-19.53,29.31C474.15,393.85,473.25,393.49,473.25,393.49Z" transform="translate(-249.8 -121.7)"/><path class="cls-27" d="M461.56,381.48a25.15,25.15,0,0,0-12.4-21.71c-6.11,12.79-5.4,18.82-4.53,20.38S462.35,387.69,461.56,381.48Z" transform="translate(-249.8 -121.7)"/><path class="cls-28" d="M467.51,383.66a25,25,0,0,0-7.7-23.77c-8.6,11.26-9.14,17.31-8.6,19S467,389.9,467.51,383.66Z" transform="translate(-249.8 -121.7)"/><path class="cls-29" d="M465.9,393.49c-2.85-18.59-6.81-23.95-24-29.31-3.41,16.27,6.81,24.49,19.53,29.31C465,393.85,465.9,393.49,465.9,393.49Z" transform="translate(-249.8 -121.7)"/><path class="cls-30" d="M465.55,393.49s-17.39-11.26,3.58-34.85c12.54,15,13.08,20.2,4.12,34.85Z" transform="translate(-249.8 -121.7)"/><path class="cls-31" d="M474.86,391.88c9.51-3.75,16.13-3.57,24.2,3.58-9.85,8.58-22,6.68-22,6.68S474.32,395.46,474.86,391.88Z" transform="translate(-249.8 -121.7)"/><path class="cls-32" d="M464,391.88c-9.5-3.75-16.13-3.57-24.19,3.58,9.84,8.58,22,6.68,22,6.68S464.52,395.46,464,391.88Z" transform="translate(-249.8 -121.7)"/><path class="cls-33" d="M464.47,392.78s-9.86,5.72,5.74,17.33c9.32-10.18,11.11-12.15,5.2-17.33Z" transform="translate(-249.8 -121.7)"/></svg>